<svg xmlns="http://www.w3.org/2000/svg" xmlns:xlink="http://www.w3.org/1999/xlink" width="150" height="34" viewBox="0 0 150 34">
    <defs>
        <path id="prefix__a" d="M0.088 0.179L26.125 0.179 26.125 32.9 0.088 32.9z"/>
    </defs>
    <g fill="none" fill-rule="evenodd">
        <path fill="#FD0" d="M53.036 7.593c-7.057 0-12.726 5.55-12.726 12.716 0 7.167 5.669 12.716 12.726 12.716 7.058 0 12.727-5.55 12.727-12.716-.027-7.167-5.669-12.716-12.727-12.716m0 18.404c-3.112 0-5.53-2.258-5.53-5.688 0-3.43 2.391-5.69 5.53-5.69 3.112 0 5.53 2.26 5.53 5.69-.028 3.43-2.418 5.688-5.53 5.688M76.113 1.848l-5.613 1.7c-.334.113-.556.42-.556.754V9.07h-3.056c-.446 0-.806.361-.806.808v4.545c0 .447.36.809.806.809h3.056v8.533c0 6.58 1.89 9.705 10.642 8.618.389-.056.695-.392.695-.781V26.61c0-.445-.36-.807-.805-.807-2.557.028-3.335.028-3.335-2.064v-8.533h3.363c.444 0 .805-.363.805-.81V9.824c0-.446-.36-.81-.805-.81H77.14V2.6c0-.529-.528-.92-1.028-.752M108.67 7.593c-7.056 0-12.725 5.55-12.725 12.716 0 7.167 5.669 12.716 12.726 12.716 7.058 0 12.726-5.55 12.726-12.716 0-7.167-5.668-12.716-12.726-12.716m0 18.404c-3.113 0-5.53-2.258-5.53-5.688 0-3.43 2.391-5.69 5.53-5.69 3.14 0 5.53 2.26 5.53 5.69 0 3.43-2.418 5.688-5.53 5.688M91.27 23.739V2.043c0-.53-.528-.92-1.028-.753L84.63 3.019c-.335.111-.557.419-.557.753v19.967c0 6.58 1.891 9.648 10.642 8.617.39-.056.695-.39.695-.81V26.61c0-.446-.36-.809-.806-.809-2.528.056-3.334.195-3.334-2.063"/>
        <g transform="translate(123.571 .18)">
            <mask id="prefix__b" fill="#fff">
                <use xlink:href="#prefix__a"/>
            </mask>
            <path fill="#FD0" d="M13.399 7.413c-2.224 0-4.308.557-6.113 1.534V.97c0-.53-.528-.92-1.028-.753L.644 1.948c-.334.11-.556.417-.556.751v29.254c0 .446.362.809.806.809l5.614-.028c.444 0 .778-.363.778-.809v-.558c1.805.976 3.89 1.533 6.113 1.533 7.058 0 12.726-5.549 12.726-12.717 0-7.22-5.668-12.77-12.726-12.77m0 18.404c-3.112 0-5.53-2.258-5.53-5.687 0-3.43 2.39-5.69 5.53-5.69 3.112 0 5.53 2.26 5.53 5.69 0 3.429-2.418 5.687-5.53 5.687" mask="url(#prefix__b)"/>
        </g>
        <path fill="#FD0" d="M15.374 1.647C7.287 1.873.564 8.35.035 16.453c-.54 8.286 5.255 15.316 13 16.701V29.33c0-.593-.376-1.113-.93-1.317-1.75-.639-3.326-1.726-4.563-3.19-.4-.476-.428-1.2.012-1.64.49-.493 1.284-.447 1.718.075 1.007 1.211 2.308 2.096 3.753 2.596.69.24 1.404-.297 1.404-1.029 0-.471-.306-.875-.749-1.028-2.793-.961-4.743-3.747-4.432-6.94.315-3.232 3.023-5.803 6.253-5.959 3.798-.183 6.935 2.853 6.935 6.625 0 2.913-1.87 5.384-4.47 6.278-.44.15-.744.555-.744 1.022 0 .752.743 1.265 1.451 1.016 1.414-.499 2.688-1.367 3.681-2.55.383-.456 1.064-.589 1.56-.26.588.393.694 1.197.253 1.725-1.242 1.497-2.837 2.607-4.611 3.257-.557.204-.936.725-.936 1.321v3.823c7.406-1.325 13.032-7.816 13.032-15.632 0-8.921-7.331-16.124-16.278-15.875"/>
    </g>
</svg>
