<svg xmlns="http://www.w3.org/2000/svg" xmlns:xlink="http://www.w3.org/1999/xlink" width="80" height="100" viewBox="0 0 80 100">
    <defs>
        <path id="prefix__a" d="M0 0.258L58.966 0.258 58.966 44.444 0 44.444z"/>
    </defs>
    <g fill="none" fill-rule="evenodd">
        <path fill="#FD0" d="M10.597 5.001c.36.992 1.442 1.508 2.447 1.186 5.517-1.77 11.222-2.516 16.986-2.22 6.176.317 12.162 1.81 17.793 4.437 5.631 2.627 10.622 6.255 14.832 10.784 4.358 4.687 7.686 10.141 9.894 16.21 2.208 6.07 3.161 12.389 2.833 18.78-.317 6.175-1.81 12.162-4.437 17.793-2.627 5.63-6.256 10.621-10.784 14.832-4.227 3.93-9.079 7.023-14.443 9.212-.977.399-1.474 1.489-1.114 2.48.38 1.044 1.551 1.558 2.58 1.139 25.599-10.449 38.568-39.359 29.035-65.57C66.685 7.854 38.172-5.968 11.84 2.472c-1.056.339-1.624 1.486-1.244 2.53"/>
        <path fill="#FD0" d="M65.247 69.321c9.415-20.168 1.24-44.035-18.236-54.307-.987-.52-2.211-.111-2.684.9v.001c-.438.94-.069 2.062.849 2.545 3.929 2.068 7.411 4.775 10.371 8.057 3.26 3.614 5.76 7.779 7.43 12.371 1.669 4.594 2.427 9.391 2.25 14.256-.184 5.025-1.366 9.915-3.518 14.526-2.152 4.61-5.141 8.656-8.877 12.024-3.614 3.26-7.779 5.76-12.372 7.43-4.592 1.67-9.39 2.427-14.254 2.25-4.417-.161-8.728-1.093-12.837-2.777-.958-.393-2.056.045-2.495.984-.472 1.013 0 2.213 1.033 2.636 20.38 8.334 43.926-.728 53.34-20.896"/>
        <g transform="translate(0 38.669)">
            <mask id="prefix__b" fill="#fff">
                <use xlink:href="#prefix__a"/>
            </mask>
            <path fill="#FD0" d="M41.098 41.383c15.007-7.156 21.717-24.69 15.634-39.912C56.316.431 55.097-.033 54.085.45l-.002.001c-.93.444-1.35 1.533-.968 2.491 1.14 2.856 1.781 5.842 1.918 8.895.158 3.547-.368 7.054-1.556 10.409-1.188 3.355-2.987 6.41-5.343 9.067-2.429 2.738-5.36 4.947-8.716 6.547-3.356 1.6-6.918 2.489-10.574 2.652-3.547.159-7.054-.367-10.41-1.556-3.354-1.188-6.41-2.987-9.067-5.343-2.285-2.027-4.202-4.406-5.704-7.089-.504-.899-1.614-1.259-2.545-.815l-.002.001c-1.012.483-1.42 1.721-.872 2.7 8 14.308 25.847 20.13 40.854 12.974" mask="url(#prefix__b)"/>
        </g>
        <path fill="#FD0" d="M48.718 50.262c-.77-10.94-9.721-19.35-20.452-19.674-1.156-.035-2.09.936-2.008 2.09.07 1 .887 1.782 1.89 1.812 1.728.053 3.419.363 5.039.918 2.114.724 4.047 1.843 5.733 3.307s3.063 3.222 4.077 5.213c1.038 2.041 1.661 4.267 1.826 6.608.165 2.34-.14 4.632-.882 6.798-.725 2.114-1.843 4.048-3.307 5.733-1.464 1.686-3.221 3.064-5.213 4.078-1.527.776-3.156 1.32-4.86 1.614-.988.17-1.688 1.06-1.618 2.06.081 1.153 1.142 1.984 2.281 1.788 10.58-1.825 18.264-11.406 17.494-22.345"/>
        <path fill="#FD0" d="M34.597 60.213c4.044-3.343 5.081-8.974 2.786-13.46-.57-1.114-2.022-1.419-2.986-.621l-.002.001c-.7.579-.917 1.569-.501 2.376 1.49 2.892.823 6.539-1.785 8.694-2.608 2.155-6.314 2.123-8.875.116-.714-.561-1.727-.534-2.427.045l-.002.001c-.964.797-.938 2.28.048 3.05 3.973 3.099 9.7 3.14 13.744-.202"/>
    </g>
</svg>
